<svg width="20" height="19" viewBox="0 0 20 19" fill="none" xmlns="http://www.w3.org/2000/svg"><g clip-path="url(#clip0_20_863)"><path d="M18.853 5.238l-1.67 1.67a.435.435 0 01-.615 0l-4.021-4.02a.435.435 0 010-.616l1.67-1.67a1.742 1.742 0 012.46 0l2.176 2.177a1.736 1.736 0 010 2.46zm-7.74-1.532L1.6 13.218l-.768 4.4a.87.87 0 001.007 1.008l4.4-.772 9.513-9.511a.435.435 0 000-.616l-4.021-4.02a.44.44 0 00-.62 0zm-5.8 8.697a.505.505 0 010-.717l5.579-5.578c.199-.2.518-.2.717 0 .2.199.2.518 0 .717L6.03 12.403c-.2.2-.518.2-.717 0zm-1.307 3.046h1.739v1.315l-2.337.41-1.126-1.127.41-2.336h1.314v1.738z" fill="#fff"/></g><defs><clipPath id="clip0_20_863"><path fill="#fff" transform="translate(.818 .09)" d="M0 0h18.546v18.546H0z"/></clipPath></defs></svg>