<svg width="20" height="19" viewBox="0 0 20 19" fill="none" xmlns="http://www.w3.org/2000/svg">
<g clip-path="url(#clip0_20_863)">
<path d="M18.8532 5.2384L17.1834 6.90821C17.0132 7.07845 16.7379 7.07845 16.5676 6.90821L12.547 2.88762C12.3768 2.71737 12.3768 2.44209 12.547 2.27185L14.2168 0.602033C14.8942 -0.0753113 15.9953 -0.0753113 16.6763 0.602033L18.8532 2.77895C19.5342 3.45629 19.5342 4.55743 18.8532 5.2384ZM11.1127 3.70622L1.60086 13.218L0.832966 17.6189C0.727924 18.213 1.24589 18.7273 1.83993 18.6259L6.24085 17.8544L15.7526 8.34259C15.9229 8.17235 15.9229 7.89706 15.7526 7.72682L11.732 3.70622C11.5582 3.53598 11.2829 3.53598 11.1127 3.70622ZM5.31358 12.403C5.11436 12.2038 5.11436 11.8851 5.31358 11.6858L10.8917 6.10772C11.0909 5.9085 11.4097 5.9085 11.6089 6.10772C11.8081 6.30693 11.8081 6.62568 11.6089 6.8249L6.03076 12.403C5.83155 12.6022 5.5128 12.6022 5.31358 12.403ZM4.00598 15.4493H5.74461V16.7641L3.40832 17.1734L2.28183 16.0469L2.69113 13.7106H4.00598V15.4493Z" fill="white"/>
</g>
<defs>
<clipPath id="clip0_20_863">
<rect width="18.5455" height="18.5455" fill="white" transform="translate(0.818237 0.0906982)"/>
</clipPath>
</defs>
</svg>
